<?xml version="1.0" encoding="UTF-8" standalone="no" ?>
<!DOCTYPE svg PUBLIC "-//W3C//DTD SVG 1.1//EN" "http://www.w3.org/Graphics/SVG/1.1/DTD/svg11.dtd">
<svg xmlns="http://www.w3.org/2000/svg" xmlns:xlink="http://www.w3.org/1999/xlink" version="1.1" width="20" height="20" viewBox="0 0 20 20" xml:space="preserve">
<desc>Created with Fabric.js 4.6.0</desc>
<defs>
</defs>
<g transform="matrix(-1 0 0 1 10 10)" id="nzYLRSzn4o_2Von1tG_Ez"  >
<g style="" vector-effect="non-scaling-stroke"   >
		<g transform="matrix(-0.4 0 0 0.4 0 0)" id="TRZ1q_DQ0u2nCgdR1WZ5S"  >
<path style="stroke: none; stroke-width: 0; stroke-dasharray: none; stroke-linecap: butt; stroke-dashoffset: 0; stroke-linejoin: miter; stroke-miterlimit: 4; fill: rgb(128,128,128); fill-rule: nonzero; opacity: 1;" vector-effect="non-scaling-stroke"  transform=" translate(-49.5, -50)" d="M 31.356 25.677 L 69.981 47.977000000000004 C 71.538 48.876000000000005 71.538 51.124 69.981 52.023 L 31.355999999999995 74.32300000000001 C 29.798999999999996 75.22200000000001 27.851999999999993 74.09800000000001 27.851999999999993 72.30000000000001 L 27.851999999999993 27.7 C 27.852 25.902 29.798 24.778 31.356 25.677 z" stroke-linecap="round" />
</g>
		<g transform="matrix(-0.4 0 0 0.4 -0.09 0.01)" id="99Du753M2BQ9kdAcU6GfV"  >
<path style="stroke: none; stroke-width: 0; stroke-dasharray: none; stroke-linecap: butt; stroke-dashoffset: 0; stroke-linejoin: miter; stroke-miterlimit: 4; fill: rgb(128,128,128); fill-rule: nonzero; opacity: 1;" vector-effect="non-scaling-stroke"  transform=" translate(-49.71, -50.03)" d="M 69.981 47.977 L 31.355999999999995 25.676999999999996 C 31.122999999999994 25.542999999999996 30.881999999999994 25.466999999999995 30.639999999999993 25.417999999999996 L 67.981 46.977 C 69.538 47.876 69.538 50.123999999999995 67.981 51.022999999999996 L 29.355999999999995 73.323 C 29.006999999999994 73.52399999999999 28.639999999999993 73.61099999999999 28.277999999999995 73.624 C 28.933999999999994 74.562 30.238999999999994 74.967 31.355999999999995 74.323 L 69.981 52.022999999999996 C 71.538 51.124 71.538 48.876 69.981 47.977 z" stroke-linecap="round" />
</g>
		<g transform="matrix(-0.4 0 0 0.4 0 0)" id="nSJqAlpQ_G2GDevAXWKdT"  >
<path style="stroke: rgb(0,0,0); stroke-width: 0; stroke-dasharray: none; stroke-linecap: butt; stroke-dashoffset: 0; stroke-linejoin: miter; stroke-miterlimit: 10; fill: rgb(128,128,128); fill-rule: nonzero; opacity: 1;" vector-effect="non-scaling-stroke"  transform=" translate(-49.5, -50)" d="M 31.356 25.677 L 69.981 47.977000000000004 C 71.538 48.876000000000005 71.538 51.124 69.981 52.023 L 31.355999999999995 74.32300000000001 C 29.798999999999996 75.22200000000001 27.851999999999993 74.09800000000001 27.851999999999993 72.30000000000001 L 27.851999999999993 27.7 C 27.852 25.902 29.798 24.778 31.356 25.677 z" stroke-linecap="round" />
</g>
</g>
</g>
</svg>