<?xml version="1.0" encoding="UTF-8" standalone="no" ?>
<!DOCTYPE svg PUBLIC "-//W3C//DTD SVG 1.1//EN" "http://www.w3.org/Graphics/SVG/1.1/DTD/svg11.dtd">
<svg xmlns="http://www.w3.org/2000/svg" xmlns:xlink="http://www.w3.org/1999/xlink" version="1.1" width="19" height="20" viewBox="0 0 40 40" xml:space="preserve">
<desc>Created with Fabric.js 4.6.0</desc>
<defs>
</defs>
<g transform="matrix(0.93 0 0 0.93 19.95 26.99)" id="EdQfUx-lpCE6M2I6x6rx2"  >
<path style="stroke: none; stroke-width: 1; stroke-dasharray: none; stroke-linecap: butt; stroke-dashoffset: 0; stroke-linejoin: miter; stroke-miterlimit: 4; fill: rgb(0,0,0); fill-rule: nonzero; opacity: 1;" vector-effect="non-scaling-stroke"  transform=" translate(-19.9, -27.5)" d="M 28 40 L 11.8 40 C 8.5 40 5.9 37.3 5.9 34.1 L 5.9 16 C 5.9 15.4 6.300000000000001 15 6.9 15 C 7.5 15 7.9 15.4 7.9 16 L 7.9 34.1 C 7.9 36.300000000000004 9.700000000000001 38 11.8 38 L 28 38 C 30.2 38 31.9 36.2 31.9 34.1 L 31.9 16 C 31.9 15.4 32.3 15 32.9 15 C 33.5 15 33.9 15.4 33.9 16 L 33.9 34.1 C 33.9 37.3 31.2 40 28 40 z" stroke-linecap="round" />
</g>
<g transform="matrix(0.93 0 0 0.93 20 10.06)" id="uybUPJIjZw-OQnY4TGwQM"  >
<path style="stroke: none; stroke-width: 1; stroke-dasharray: none; stroke-linecap: butt; stroke-dashoffset: 0; stroke-linejoin: miter; stroke-miterlimit: 4; fill: rgb(0,0,0); fill-rule: nonzero; opacity: 1;" vector-effect="non-scaling-stroke"  transform=" translate(-19.95, -6.5)" d="M 33.3 4.9 L 25.699999999999996 4.9 C 25.2 2.1 22.8 0 19.9 0 C 16.999999999999996 0 14.599999999999998 2.1 14.099999999999998 4.9 L 6.5 4.9 C 4.2 4.9 2.4000000000000004 6.7 2.4000000000000004 9 C 2.4000000000000004 11.3 4.2 13 6.5 13 L 33.4 13 C 35.699999999999996 13 37.5 11.2 37.5 8.9 C 37.5 6.600000000000001 35.6 4.9 33.3 4.9 z M 19.9 2 C 21.7 2 23.2 3.2 23.599999999999998 4.9 L 16.099999999999998 4.9 C 16.6 3.2 18.1 2 19.9 2 z M 33.3 11 L 6.5 11 C 5.4 11 4.4 10.1 4.4 8.9 C 4.4 7.800000000000001 5.300000000000001 6.800000000000001 6.5 6.800000000000001 L 33.4 6.800000000000001 C 34.5 6.800000000000001 35.5 7.700000000000001 35.5 8.9 C 35.4 10.1 34.5 11 33.3 11 z" stroke-linecap="round" />
</g>
<g transform="matrix(0.93 0 0 0.93 13.43 25.36)" id="hwSIiNNbVKjhEwQ_t-s2J"  >
<path style="stroke: none; stroke-width: 1; stroke-dasharray: none; stroke-linecap: butt; stroke-dashoffset: 0; stroke-linejoin: miter; stroke-miterlimit: 4; fill: rgb(0,0,0); fill-rule: nonzero; opacity: 1;" vector-effect="non-scaling-stroke"  transform=" translate(-12.9, -25.75)" d="M 12.9 35.1 C 12.3 35.1 11.9 34.7 11.9 34.1 L 11.9 17.4 C 11.9 16.799999999999997 12.3 16.4 12.9 16.4 C 13.5 16.4 13.9 16.799999999999997 13.9 17.4 L 13.9 34.099999999999994 C 13.9 34.6 13.4 35.1 12.9 35.1 z" stroke-linecap="round" />
</g>
<g transform="matrix(0.93 0 0 0.93 26.48 25.36)" id="RpQt-c7fE_odeQpG4w1tr"  >
<path style="stroke: none; stroke-width: 1; stroke-dasharray: none; stroke-linecap: butt; stroke-dashoffset: 0; stroke-linejoin: miter; stroke-miterlimit: 4; fill: rgb(0,0,0); fill-rule: nonzero; opacity: 1;" vector-effect="non-scaling-stroke"  transform=" translate(-26.9, -25.75)" d="M 26.9 35.1 C 26.299999999999997 35.1 25.9 34.7 25.9 34.1 L 25.9 17.4 C 25.9 16.799999999999997 26.299999999999997 16.4 26.9 16.4 C 27.5 16.4 27.9 16.799999999999997 27.9 17.4 L 27.9 34.099999999999994 C 27.9 34.6 27.4 35.1 26.9 35.1 z" stroke-linecap="round" />
</g>
<g transform="matrix(0.93 0 0 0.93 19.95 25.36)" id="Zvw9-OAyG98B1VME1ENQz"  >
<path style="stroke: none; stroke-width: 1; stroke-dasharray: none; stroke-linecap: butt; stroke-dashoffset: 0; stroke-linejoin: miter; stroke-miterlimit: 4; fill: rgb(0,0,0); fill-rule: nonzero; opacity: 1;" vector-effect="non-scaling-stroke"  transform=" translate(-19.9, -25.75)" d="M 19.9 35.1 C 19.299999999999997 35.1 18.9 34.7 18.9 34.1 L 18.9 17.4 C 18.9 16.799999999999997 19.299999999999997 16.4 19.9 16.4 C 20.5 16.4 20.9 16.799999999999997 20.9 17.4 L 20.9 34.099999999999994 C 20.9 34.6 20.4 35.1 19.9 35.1 z" stroke-linecap="round" />
</g>
</svg>