<?xml version="1.0" encoding="UTF-8" standalone="no" ?>
<!DOCTYPE svg PUBLIC "-//W3C//DTD SVG 1.1//EN" "http://www.w3.org/Graphics/SVG/1.1/DTD/svg11.dtd">
<svg xmlns="http://www.w3.org/2000/svg" xmlns:xlink="http://www.w3.org/1999/xlink" version="1.1" width="40" height="40" viewBox="0 0 480 480" xml:space="preserve">
<defs>
</defs>
<g transform="matrix(-0.97 0 0 0.99 240 240)" id="GNJQPGTDJLn70i5xTniZL"  >
<path style="stroke: none; stroke-width: 0; stroke-dasharray: none; stroke-linecap: butt; stroke-dashoffset: 0; stroke-linejoin: miter; stroke-miterlimit: 4; fill: rgb(0,0,0); fill-rule: nonzero; opacity: 1;" vector-effect="non-scaling-stroke"  transform=" translate(-247.03, -247.03)" d="M 94.293 322.206 C 95.46100000000001 333.71000000000004 101.685 344.029 110.542 350.99800000000005 C 105.584 356.83200000000005 102.583 364.37700000000007 102.583 372.61400000000003 L 102.583 403.494 C 102.583 416.80400000000003 110.265 428.269 121.525 433.65500000000003 C 120.887 436.73100000000005 120.549 439.91600000000005 120.549 443.17800000000005 C 120.549 468.99300000000005 141.55100000000002 489.99500000000006 167.365 489.99500000000006 C 193.18 489.99500000000006 214.18200000000002 468.99300000000005 214.18200000000002 443.17800000000005 C 214.18200000000002 441.06200000000007 214.02800000000002 438.982 213.75400000000002 436.94000000000005 L 290.76 436.94000000000005 C 290.48699999999997 438.98300000000006 290.332 441.06200000000007 290.332 443.17800000000005 C 290.332 468.99300000000005 311.334 489.99500000000006 337.149 489.99500000000006 C 362.963 489.99500000000006 383.96500000000003 468.99300000000005 383.96500000000003 443.17800000000005 C 383.96500000000003 417.36300000000006 362.963 396.36100000000005 337.149 396.36100000000005 C 321.489 396.36100000000005 307.611 404.09700000000004 299.10699999999997 415.94000000000005 L 205.40599999999998 415.94000000000005 C 196.902 404.09700000000004 183.02399999999997 396.36100000000005 167.36399999999998 396.36100000000005 C 152.319 396.36100000000005 138.91799999999998 403.50300000000004 130.34699999999998 414.56600000000003 C 126.31499999999998 412.50800000000004 123.57999999999998 408.334 123.57999999999998 403.495 L 123.57999999999998 372.615 C 123.57999999999998 365.757 129.16299999999998 360.178 136.02599999999998 360.178 C 136.058 360.178 136.08899999999997 360.174 136.12099999999998 360.173 C 136.18499999999997 360.174 136.24899999999997 360.178 136.31199999999998 360.178 L 381.812 360.178 C 402.111 360.178 423.136 345.129 429.68 325.917 L 492.064 142.74399999999997 C 495.594 132.37999999999997 494.39300000000003 121.92999999999998 488.76800000000003 114.07299999999998 C 483.144 106.21599999999998 473.639 101.70899999999997 462.69100000000003 101.70899999999997 L 440.30100000000004 101.70899999999997 L 372.82900000000006 33.91399999999997 C 362.33900000000006 23.425999999999974 345.33600000000007 23.334999999999972 334.72400000000005 33.629999999999974 L 220.858 64.258 L 190.292 9.452 C 187.468 4.388 181.074 2.5730000000000004 176.008 5.396 L 114.87300000000002 39.492 C 112.44000000000003 40.848 110.64700000000002 43.116 109.88700000000001 45.794999999999995 C 109.12600000000002 48.474 109.46100000000001 51.34499999999999 110.81800000000001 53.776999999999994 L 137.55 101.708 L 112.22500000000001 101.708 C 105.47200000000001 101.708 99.111 103.43299999999999 93.59500000000001 106.667 L 88.63700000000001 57.098 C 88.10000000000001 51.73 83.58300000000001 47.643 78.18900000000002 47.643 L 10.5 47.643 C 4.701 47.643 0 52.344 0 58.143 C 0 63.942 4.701 68.643 10.5 68.643 L 68.687 68.643 L 94.293 322.206 z M 337.151 417.36 C 351.386 417.36 362.967 428.942 362.967 443.177 C 362.967 457.41200000000003 351.38599999999997 468.994 337.151 468.994 C 322.916 468.994 311.334 457.413 311.334 443.177 C 311.334 428.941 322.916 417.36 337.151 417.36 z M 167.366 417.36 C 181.601 417.36 193.18300000000002 428.942 193.18300000000002 443.177 C 193.18300000000002 457.41200000000003 181.60100000000003 468.994 167.366 468.994 C 153.13100000000003 468.994 141.55 457.413 141.55 443.177 C 141.55 428.941 153.131 417.36 167.366 417.36 z M 357.967 48.745 L 410.67699999999996 101.708 L 296.333 101.708 L 349.276 48.763999999999996 C 351.677 46.363 355.582 46.363 357.967 48.745 z M 304.959 63.383 L 266.635 101.708 L 241.745 101.708 L 231.405 83.169 L 304.959 63.383 z M 134.271 52.718 L 177.06599999999997 28.851000000000003 L 217.7 101.708 L 161.594 101.708 L 134.271 52.718 z M 472.188 135.972 L 409.804 319.145 C 406.169 329.816 393.09 339.176 381.815 339.176 L 136.315 339.176 C 125.91199999999999 339.176 116.235 330.433 115.185 320.086 L 111.47500000000001 283.492 L 337.223 283.492 C 343.022 283.492 347.723 278.791 347.723 272.992 C 347.723 267.19300000000004 343.022 262.492 337.223 262.492 L 109.347 262.492 L 96.921 139.92 C 96.921 139.917 96.921 139.916 96.921 139.914 L 96.91900000000001 139.891 C 96.44600000000001 135.22199999999998 97.79800000000002 130.867 100.72800000000001 127.62499999999999 C 103.593 124.45399999999998 107.67600000000002 122.70799999999998 112.22500000000001 122.70799999999998 L 435.843 122.70799999999998 C 435.87800000000004 122.70899999999999 435.911 122.71299999999998 435.946 122.71299999999998 C 435.98 122.71299999999998 436.014 122.70899999999997 436.048 122.70799999999998 L 462.695 122.70799999999998 C 466.843 122.70799999999998 470.041 123.98199999999999 471.69599999999997 126.29499999999999 C 473.352 128.607 473.526 132.044 472.188 135.972 z" stroke-linecap="round" />
</g>
</svg>