<?xml version="1.0" encoding="UTF-8" standalone="no" ?>
<!DOCTYPE svg PUBLIC "-//W3C//DTD SVG 1.1//EN" "http://www.w3.org/Graphics/SVG/1.1/DTD/svg11.dtd">
<svg xmlns="http://www.w3.org/2000/svg" xmlns:xlink="http://www.w3.org/1999/xlink" version="1.1" width="100" height="100" viewBox="0 0 250 250" xml:space="preserve">
<desc>Created with Fabric.js 4.6.0</desc>
<defs>
</defs>
<g transform="matrix(1 0 0 1 125 125)" id="vFLD7NHeu8fxcGew1A7kQ"  >
<path style="stroke: none; stroke-width: 1; stroke-dasharray: none; stroke-linecap: butt; stroke-dashoffset: 0; stroke-linejoin: miter; stroke-miterlimit: 4; fill: rgb(128,128,128); fill-rule: nonzero; opacity: 1;" vector-effect="non-scaling-stroke"  transform=" translate(-128, -128)" d="M 216 42 L 40 42 C 32.271609366179796 42.008674298805126 26.008674298805126 48.271609366179796 26 56 L 26 200 C 26.008674298805126 207.7283906338202 32.271609366179796 213.99132570119488 40 214 L 216 214 C 223.7283906338202 213.99132570119488 229.99132570119488 207.7283906338202 230 200 L 230 56 C 229.99132570119488 48.271609366179796 223.7283906338202 42.008674298805126 216 42 Z M 40 54 L 216 54 C 217.1040440720551 54.001267465559295 217.9987325344407 54.89595592794491 218 56 L 218 169.51538 L 185.89941 137.41438 C 180.4284556661135 131.95684841124435 171.57251433388643 131.95684841124435 166.10155999999998 137.41438 L 145.415 158.10092 C 144.63336743415624 158.8811925261555 143.3675325658437 158.8811925261555 142.58589999999998 158.10092 L 97.89941 113.41427 C 92.42886285657734 107.95575374526277 83.57210714342266 107.95575374526277 78.10156 113.41427000000002 L 38 153.51558 L 38 56 C 38.001267465559295 54.89595592794491 38.89595592794491 54.001267465559295 40 54 Z M 216 202 L 40 202 C 38.89602663512168 201.99856212756197 38.00143787243804 201.10397336487833 38 200 L 38 170.48523 L 86.58594 121.89964 C 87.36736960292609 121.1188770281192 88.6336103970739 121.1188770281192 89.41503999999999 121.89964 L 134.10156 166.5858 C 139.57190459225714 172.04480599682347 148.4290654077429 172.04480599682347 153.89941000000002 166.5858 L 174.58594000000002 145.89971 C 175.36743806603772 145.11911243000966 176.63354193396233 145.11911243000966 177.41504000000003 145.89971 L 218 186.4843 L 218 200 C 217.99856212756197 201.10397336487833 217.10397336487833 201.99856212756197 216 202 Z M 148.92871 107.071 C 145.72864260419678 103.87029249164164 145.07723167202127 98.91931543756826 147.34047413928005 94.99978824335963 C 149.60371660653882 91.08026104915103 154.21731512411029 89.16944480702273 158.58910729945742 90.34093661976318 C 162.96089947480456 91.51242843250365 166.0008603675387 95.4741386393671 166.00098 100.00017 L 166.00098 100.00262 C 165.9997350172914 104.04696845983085 163.56267301841308 107.69244602167548 159.8259355935045 109.2395560474351 C 156.08919816859597 110.78666607319472 151.78846563310213 109.93081708041942 148.92871 107.071 Z" stroke-linecap="round" />
</g>
</svg>