<?xml version="1.0" encoding="UTF-8" standalone="no" ?>
<!DOCTYPE svg PUBLIC "-//W3C//DTD SVG 1.1//EN" "http://www.w3.org/Graphics/SVG/1.1/DTD/svg11.dtd">
<svg xmlns="http://www.w3.org/2000/svg" xmlns:xlink="http://www.w3.org/1999/xlink" version="1.1" width="18" height="18" viewBox="0 0 40 40" xml:space="preserve">
<desc>Created with Fabric.js 4.6.0</desc>
<defs>
</defs>
<g transform="matrix(1.6 0 0 1.6 20 20)" id="ZSQzJXREw4c_W20UT8A25"  >
<path style="stroke: none; stroke-width: 1; stroke-dasharray: none; stroke-linecap: butt; stroke-dashoffset: 0; stroke-linejoin: miter; stroke-miterlimit: 4; fill: rgb(0,0,0); fill-rule: nonzero; opacity: 1;" vector-effect="non-scaling-stroke"  transform=" translate(-12, -12)" d="M 7.707 8.707 L 5.414 11 L 17 11 C 17.552284749830793 11 18 11.447715250169207 18 12 C 18 12.552284749830793 17.552284749830793 13 17 13 L 5.414 13 L 7.707 15.293 C 7.966956584453098 15.544074470261531 8.07121259719833 15.915877892142184 7.97969715658291 16.26550732389328 C 7.888181715967489 16.61513675564438 7.61513675564438 16.888181715967487 7.265507323893283 16.97969715658291 C 6.915877892142186 17.071212597198333 6.544074470261532 16.966956584453097 6.293 16.707 L 2.293 12.707 C 1.9026180616671375 12.316500148514187 1.9026180616671375 11.683499851485815 2.293 11.293000000000001 L 6.293 7.293000000000001 C 6.544074470261528 7.033043415546887 6.9158778921421895 6.928787402801642 7.265507323893297 7.020302843417061 C 7.615136755644404 7.111818284032479 7.888181715967521 7.384863244355597 7.97969715658294 7.734492676106704 C 8.07121259719836 8.08412210785781 7.966956584453114 8.455925529738472 7.707 8.707 Z M 21 1 L 13 1 C 12.447715250169207 1 12 1.4477152501692065 12 2 C 12 2.5522847498307932 12.447715250169207 3 13 3 L 20 3 L 20 21 L 13 21 C 12.447715250169207 21 12 21.447715250169207 12 22 C 12 22.552284749830793 12.447715250169207 23 13 23 L 21 23 C 21.552284749830793 23 22 22.552284749830793 22 22 L 22 2 C 22 1.4477152501692065 21.552284749830793 1 21 1 Z" stroke-linecap="round" />
</g>
</svg>