<?xml version="1.0" encoding="UTF-8" standalone="no" ?>
<!DOCTYPE svg PUBLIC "-//W3C//DTD SVG 1.1//EN" "http://www.w3.org/Graphics/SVG/1.1/DTD/svg11.dtd">
<svg xmlns="http://www.w3.org/2000/svg" xmlns:xlink="http://www.w3.org/1999/xlink" version="1.1" width="480" height="480" viewBox="0 0 480 480" xml:space="preserve">
<desc>Created with Fabric.js 4.6.0</desc>
<defs>
</defs>
<g transform="matrix(1 0 0 1 240 240)" id="70mVUD7etgxVvxDqZGBW5"  >
<path style="stroke: none; stroke-width: 0; stroke-dasharray: none; stroke-linecap: butt; stroke-dashoffset: 0; stroke-linejoin: miter; stroke-miterlimit: 4; fill: rgb(255,255,255); fill-rule: nonzero; opacity: 1;" vector-effect="non-scaling-stroke"  transform=" translate(-240, -240)" d="M 140 48 L 140 50 C 140 55.522 135.523 60 130 60 C 124.477 60 120 55.522 120 50 L 120 48 C 120 42.478 124.477 38 130 38 C 135.523 38 140 42.478 140 48 z M 480 463.745 L 480 463.842 C 480 472.752 472.751 480 463.842 480 L 400 480 C 338.949 480 280.575 462.57 230 429.40999999999997 L 230 440 C 230 462.056 212.056 480 190 480 L 90 480 C 67.944 480 50 462.056 50 440 C 50 417.944 67.944 400 90 400 L 150 400 L 150 353.908 C 126.689 322.451 109.831 287.547 99.805 250 L 20 250 C 8.972 250 0 241.028 0 230 C 0 207.944 17.944 190 40 190 L 90 190 L 90 120 L 67.398 120 C 46.777 120 30 103.224 30 82.602 C 30 71.67 34.76 61.321000000000005 43.06 54.206 L 89.141 14.709000000000003 C 100.206 5.224 114.327 0 128.902 0 C 162.592 0 190 27.408 190 61.098 L 190 108.138 C 201.688 96.91 217.552 90 235 90 C 251.542 90 265 103.458 265 120 L 265 160 L 290 160 C 317.57 160 340 182.43 340 210 L 340 250 L 350 250 C 372.056 250 390 267.944 390 290 L 390 340 L 410 340 C 426.54200000000003 340 440 353.458 440 370 L 440 432.44 C 450.094 439.973 459.806 445.34499999999997 469.055 448.452 L 469.055 448.452 C 475.602 450.651 480 456.797 480 463.745 z M 374.025 360 C 389.82899999999995 382.298 405.23199999999997 400.787 420 415.178 L 420 370 C 420 364.486 415.514 360 410 360 L 374.025 360 z M 319.122 270 C 333.031 295.89300000000003 346.837 319.279 360.411 340 L 370 340 L 370 290 C 370 278.972 361.028 270 350 270 L 319.122 270 z M 265 194.868 C 282.272 208.793 296.534 226.316 306.644 246.147 C 307.302 247.438 307.958 248.719 308.616 250 L 320 250 L 320 210 C 320 193.458 306.542 180 290 180 L 265 180 L 265 194.868 z M 190 161.824 C 209.334 164.786 228.04399999999998 171.364 245 181.154 L 245 120 C 245 114.486 240.514 110 235 110 C 210.187 110 190 130.187 190 155 L 190 161.824 z M 445.902 460 C 438.8 456.137 423.491 445.042 422.964 444.52 C 396.217 423.09999999999997 370.287 390.96299999999997 346.716 355.553 C 346.708 355.54 346.699 355.528 346.692 355.516 C 324.996 322.91700000000003 305.306 287.555 288.826 255.23200000000003 C 279.339 236.62500000000003 266.084 220.80200000000002 250.20000000000002 208.54300000000003 C 249.34500000000003 208.07400000000004 248.567 207.48400000000004 247.88700000000003 206.79700000000003 C 228.11800000000002 192.19800000000004 204.485 183.00000000000003 179.06800000000004 180.61900000000003 C 173.92900000000003 180.13800000000003 170.00100000000003 175.82400000000004 170.00100000000003 170.66300000000004 L 170.00100000000003 61.098 C 170 38.437 151.563 20 128.902 20 C 119.09799999999998 20 109.59899999999999 23.514 102.15599999999999 29.894 L 56.076 69.392 C 52.214 72.701 50 77.516 50 82.602 C 50 92.195 57.805 100 67.398 100 L 100 100 C 105.523 100 110 104.478 110 110 L 110 189.668 C 110.201 192.65800000000002 110.458 195.71800000000002 110.786 199.00900000000001 C 110.819 199.33800000000002 110.83500000000001 199.667 110.83500000000001 199.995 C 110.83600000000001 202.466 109.92200000000001 204.863 108.248 206.711 C 106.352 208.806 103.66000000000001 210 100.83500000000001 210 L 40 210 C 28.972 210 20 218.972 20 230 L 107.585 230 C 112.20899999999999 230 116.22999999999999 233.17 117.309 237.666 C 126.637 276.521 143.682 312.479 167.971 344.539 C 169.288 346.277 170 348.397 170 350.578 L 170 410 C 170 415.522 165.523 420 160 420 L 90 420 C 78.972 420 70 428.972 70 440 C 70 451.028 78.972 460 90 460 L 190 460 C 201.028 460 210 451.028 210 440 L 210 410.198 C 210 406.41299999999995 212.137 402.953 215.521 401.258 C 216.938 400.548 218.47199999999998 400.198 220 400.198 C 222.12 400.198 224.226 400.871 225.988 402.188 C 276.582 440.009 336.755 460 400 460 L 445.902 460 z" stroke-linecap="round" />
</g>
</svg>