<?xml version="1.0" encoding="iso-8859-1"?>
<!-- Generator: Adobe Illustrator 19.0.0, SVG Export Plug-In . SVG Version: 6.00 Build 0)  -->
<svg version="1.1" id="Capa_1" xmlns="http://www.w3.org/2000/svg" xmlns:xlink="http://www.w3.org/1999/xlink" x="0px" y="0px"
	 viewBox="0 0 480 480" style="enable-background:new 0 0 480 480;" xml:space="preserve">
<path id="XMLID_804_" d="M140,48v2c0,5.522-4.477,10-10,10s-10-4.478-10-10v-2c0-5.522,4.477-10,10-10S140,42.478,140,48z
	 M480,463.745v0.097c0,8.91-7.249,16.158-16.158,16.158H400c-61.051,0-119.425-17.43-170-50.59V440c0,22.056-17.944,40-40,40H90
	c-22.056,0-40-17.944-40-40s17.944-40,40-40h60v-46.092C126.689,322.451,109.831,287.547,99.805,250H20c-11.028,0-20-8.972-20-20
	c0-22.056,17.944-40,40-40h50v-70H67.398C46.777,120,30,103.224,30,82.602c0-10.932,4.76-21.281,13.06-28.396l46.081-39.497
	C100.206,5.224,114.327,0,128.902,0C162.592,0,190,27.408,190,61.098v47.04C201.688,96.91,217.552,90,235,90
	c16.542,0,30,13.458,30,30v40h25c27.57,0,50,22.43,50,50v40h10c22.056,0,40,17.944,40,40v50h20c16.542,0,30,13.458,30,30v62.44
	c10.094,7.533,19.806,12.905,29.055,16.012h0C475.602,450.651,480,456.797,480,463.745z M374.025,360
	c15.804,22.298,31.207,40.787,45.975,55.178V370c0-5.514-4.486-10-10-10H374.025z M319.122,270
	c13.909,25.893,27.715,49.279,41.289,70H370v-50c0-11.028-8.972-20-20-20H319.122z M265,194.868
	c17.272,13.925,31.534,31.448,41.644,51.279c0.658,1.291,1.314,2.572,1.972,3.853H320v-40c0-16.542-13.458-30-30-30h-25V194.868z
	 M190,161.824c19.334,2.962,38.044,9.54,55,19.33V120c0-5.514-4.486-10-10-10c-24.813,0-45,20.187-45,45V161.824z M445.902,460
	c-7.102-3.863-22.411-14.958-22.938-15.48c-26.747-21.42-52.677-53.557-76.248-88.967c-0.008-0.013-0.017-0.025-0.024-0.037
	c-21.696-32.599-41.386-67.961-57.866-100.284c-9.487-18.607-22.742-34.43-38.626-46.689c-0.855-0.469-1.633-1.059-2.313-1.746
	c-19.769-14.599-43.402-23.797-68.819-26.178c-5.139-0.481-9.067-4.795-9.067-9.956V61.098C170,38.437,151.563,20,128.902,20
	c-9.804,0-19.303,3.514-26.746,9.894L56.076,69.392C52.214,72.701,50,77.516,50,82.602C50,92.195,57.805,100,67.398,100H100
	c5.523,0,10,4.478,10,10v79.668c0.201,2.99,0.458,6.05,0.786,9.341c0.033,0.329,0.049,0.658,0.049,0.986
	c0.001,2.471-0.913,4.868-2.587,6.716c-1.896,2.095-4.588,3.289-7.413,3.289H40c-11.028,0-20,8.972-20,20h87.585
	c4.624,0,8.645,3.17,9.724,7.666c9.328,38.855,26.373,74.813,50.662,106.873c1.317,1.738,2.029,3.858,2.029,6.039V410
	c0,5.522-4.477,10-10,10H90c-11.028,0-20,8.972-20,20s8.972,20,20,20h100c11.028,0,20-8.972,20-20v-29.802
	c0-3.785,2.137-7.245,5.521-8.94c1.417-0.71,2.951-1.06,4.479-1.06c2.12,0,4.226,0.673,5.988,1.99
	C276.582,440.009,336.755,460,400,460H445.902z"/>
<g>
</g>
<g>
</g>
<g>
</g>
<g>
</g>
<g>
</g>
<g>
</g>
<g>
</g>
<g>
</g>
<g>
</g>
<g>
</g>
<g>
</g>
<g>
</g>
<g>
</g>
<g>
</g>
<g>
</g>
</svg>
