<?xml version="1.0" encoding="UTF-8" standalone="no" ?>
<!DOCTYPE svg PUBLIC "-//W3C//DTD SVG 1.1//EN" "http://www.w3.org/Graphics/SVG/1.1/DTD/svg11.dtd">
<svg xmlns="http://www.w3.org/2000/svg" xmlns:xlink="http://www.w3.org/1999/xlink" version="1.1" width="100" height="100" viewBox="0 0 100 100" xml:space="preserve">
<desc>Created with Fabric.js 4.6.0</desc>
<defs>
</defs>
<g transform="matrix(0.54 0 0 0.54 50 47.33)" id="p1ezP0GGFxd_2wR9xitO4"  >
<path style="stroke: none; stroke-width: 0; stroke-dasharray: none; stroke-linecap: butt; stroke-dashoffset: 0; stroke-linejoin: miter; stroke-miterlimit: 4; fill: rgb(128,128,128); fill-rule: nonzero; opacity: 1;" vector-effect="non-scaling-stroke"  transform=" translate(-64, -63.97)" d="M 128 122 C 127.93400239386906 106.25608785191746 115.1640352924988 93.52186593487572 99.41999999999999 93.5 L 85.59 93.5 C 85.09934101438574 93.50533309738384 84.62666257875239 93.31551940864293 84.27596326823263 92.972321687653 C 83.92526395771287 92.62912396666307 83.72527575225048 92.16065960556165 83.72 91.67 L 83.72 81.17 L 89.24 74.41 C 91.3952747211147 71.76618950351619 92.57469095387395 68.46099910272974 92.58 65.04999999999998 L 92.58 60.38 C 95.82013040729058 59.27607481368877 97.99890640774352 56.233024200510016 98 52.81 L 98 44.81 C 98.00154957382088 41.54872460183343 96.02328369942377 38.61297804422812 93 37.39 L 93 34.1 C 97.3978494258391 33.15894938357064 101.03749481850258 30.08811700082359 102.7053666705411 25.911412639701897 C 104.3732385225796 21.734708278580204 103.84995691499991 17.00150571937852 101.31 13.29 C 100.81057664600375 12.561544317926609 100.01553228923454 12.090174468562257 99.13677568731295 12.001527969245604 C 98.25801908539135 11.912881469928951 97.3848498823808 12.215966618087451 96.75 12.830000000000002 C 96.22956649724769 13.328356848725585 95.64020788482225 13.74932728617232 95 14.079999999999998 C 95.28714845016476 9.628691621470985 93.36026664232489 5.322204318900704 89.85 2.5699999999999985 C 89.15400441691146 2.028712263964684 88.25513186434353 1.8210024535411196 87.39221800361202 2.002060272533892 C 86.5293041428805 2.183118091526665 85.78972827267438 2.734609490657284 85.36999999999999 3.509999999999999 C 84.68236128322087 4.779972241473065 83.63997224147306 5.822361283220873 82.36999999999999 6.51 C 73.69138308477065 -0.5946562592629894 61.694045092319584 -2.057967138622887 51.562159726113826 2.7523791118725267 C 41.43027435990807 7.562725362367941 34.98055810740026 17.784200691149945 35 29.000000000000014 L 35 37.39 C 31.976716300576225 38.61297804422813 29.99845042617912 41.54872460183343 30 44.81 L 30 52.81 C 30.001093592256478 56.233024200510016 32.17986959270943 59.276074813688766 35.42 60.38 L 35.42 65.05 C 35.42612382738464 68.46085738171186 36.605445718520365 71.76578339998441 38.760000000000005 74.41 L 44.28 81.17 L 44.28 91.67 C 44.27472424774951 92.16065960556165 44.07473604228713 92.62912396666307 43.72403673176737 92.972321687653 C 43.37333742124761 93.31551940864293 42.90065898561426 93.50533309738384 42.410000000000004 93.5 L 28.58 93.5 C 12.803219514007871 93.52753755989214 0.0220183068503097 106.31321084584857 0 122.09 L 0 125 C 0 126.65685424949238 1.3431457505076196 128 3 128 L 125 128 C 126.65685424949238 128 128 126.65685424949238 128 125 Z M 6 122 C 6.06595347211965 109.57142375581884 16.151259472322018 99.52631605234005 28.579999999999984 99.51 L 42.41 99.51 C 46.743170978156066 99.51554449392651 50.26346471315124 96.0131429761359 50.279999999999994 91.68 L 50.279999999999994 80.11 C 50.27953815165023 79.41714499258377 50.03927011720307 78.74580783751082 49.599999999999994 78.21 L 43.4 70.62 C 42.11317631559148 69.04826605525861 41.406907968333 67.08130870814375 41.4 65.05000000000001 L 41.4 57.81 C 41.4 56.15314575050762 40.05685424949238 54.81 38.4 54.81 L 38 54.81 C 36.89543050033841 54.81 36 53.91456949966159 36 52.81 L 36 44.81 C 36 43.705430500338416 36.89543050033841 42.81 38 42.81 C 39.65685424949238 42.81 41 41.466854249492386 41 39.81 L 41 29 C 41.00345967409787 19.838904199800954 46.44326392404712 11.55340693750022 54.84783806607874 7.9080233197086685 C 63.25241220811035 4.2626397019171165 73.01893991486945 5.9525721604686055 79.70999999999998 12.209999999999994 C 80.49004916395171 12.93803920662339 81.59809444532992 13.196963877185997 82.61999999999999 12.89 C 84.69992473946773 12.275391974526356 86.60053036077481 11.167277144775111 88.16 9.659999999999998 C 89.31062267106688 11.807610408902352 89.34790291429017 14.379947191309867 88.25999999999999 16.560000000000002 C 87.80726535923453 17.462713634058613 87.83909080198589 18.53263577181267 88.34468097937282 19.40684348888807 C 88.85027115675975 20.28105120596347 89.76177279758178 20.84222051948771 90.77 20.900000000000002 C 93.1079019979295 21.03136627939978 95.44005042781626 20.555980041106764 97.53999999999999 19.520000000000003 C 97.99992813298456 21.953336816373234 97.22903957554576 24.456853539317727 95.47999999999999 26.21 C 94.04123390052128 27.675051016114956 92.051971100097 28.466400086356728 90 28.39 C 89.2001378684443 28.39329832619008 88.43148521677487 28.70075938685785 87.85 29.25 C 87.27496562932093 29.813645906102916 86.9506520830111 30.584791449550742 86.94999999999999 31.39 L 86.94999999999999 39.81 C 86.94999999999999 41.466854249492386 88.2931457505076 42.81 89.94999999999999 42.81 C 91.05456949966158 42.81 91.94999999999999 43.705430500338416 91.94999999999999 44.81 L 91.94999999999999 52.81 C 91.94999999999999 53.91456949966159 91.05456949966158 54.81 89.94999999999999 54.81 L 89.52999999999999 54.81 C 87.8731457505076 54.81 86.52999999999999 56.15314575050762 86.52999999999999 57.81 L 86.52999999999999 65.05 C 86.52390886585476 67.08145225911598 85.8175452618549 69.04867489625555 84.52999999999999 70.62 L 78.4 78.21 C 77.96072988279693 78.74580783751082 77.72046184834977 79.41714499258377 77.72 80.11 L 77.72 91.67 C 77.73653528684876 96.00314297613589 81.25682902184393 99.50554449392651 85.59 99.5 L 99.42 99.5 C 111.85262081257781 99.51634910999972 121.93952470492341 109.56751552177016 122 122 Z" stroke-linecap="round" />
</g>
</svg>